<?xml version="1.0" encoding="utf-8"?>
<!-- Generator: Adobe Illustrator 24.0.0, SVG Export Plug-In . SVG Version: 6.00 Build 0)  -->
<svg version="1.1" id="Layer_1" xmlns="http://www.w3.org/2000/svg" xmlns:xlink="http://www.w3.org/1999/xlink" x="0px" y="0px"
	 viewBox="0 0 67.2 331.96" style="enable-background:new 0 0 67.2 331.96;" xml:space="preserve">
<style type="text/css">
	.st0{fill:#D51F36;}
</style>
<g>
	<g>
		<path class="st0" d="M57.93,4.48c0,94.08,0,188.16,0,282.25c0,13.59,0,27.18,0,40.76c0,5.96,9.27,5.97,9.27,0
			c0-94.08,0-188.16,0-282.25c0-13.59,0-27.18,0-40.76C67.2-1.49,57.93-1.5,57.93,4.48L57.93,4.48z"/>
	</g>
	<g>
		<path class="st0" d="M28.97,55.21c0,64.46,0,128.93,0,193.39c0,9.39,0,18.77,0,28.16c0,5.96,9.27,5.97,9.27,0
			c0-64.46,0-128.93,0-193.39c0-9.39,0-18.77,0-28.16C38.23,49.24,28.97,49.24,28.97,55.21L28.97,55.21z"/>
	</g>
	<g>
		<path class="st0" d="M0,86.57c0,52.94,0,105.89,0,158.83c0,5.96,9.27,5.97,9.27,0c0-52.94,0-105.89,0-158.83
			C9.27,80.6,0,80.59,0,86.57L0,86.57z"/>
	</g>
</g>
</svg>
