<?xml version="1.0" encoding="utf-8"?>
<!-- Generator: Adobe Illustrator 24.0.0, SVG Export Plug-In . SVG Version: 6.00 Build 0)  -->
<svg version="1.1" id="Layer_1" xmlns="http://www.w3.org/2000/svg" xmlns:xlink="http://www.w3.org/1999/xlink" x="0px" y="0px"
	 viewBox="0 0 488.34 478.2" style="enable-background:new 0 0 488.34 478.2;" xml:space="preserve">
<style type="text/css">
	.st0{fill:#D51F37;}
</style>
<path class="st0" d="M323.23,254.98H14.32c-8.82,0-15.98-7.16-15.98-15.98c0-8.82,7.16-15.98,15.98-15.98h308.91
	c8.82,0,15.98,7.16,15.98,15.98C339.21,247.82,332.05,254.98,323.23,254.98z"/>
<path class="st0" d="M238.02,340.19c-4.09,0-8.18-1.55-11.29-4.69c-6.24-6.24-6.24-16.36,0-22.61l73.93-73.92l-73.93-73.93
	c-6.24-6.24-6.24-16.36,0-22.61c6.25-6.24,16.36-6.24,22.61,0l85.22,85.22c6.24,6.24,6.24,16.36,0,22.6l-85.22,85.22
	C246.2,338.64,242.11,340.19,238.02,340.19z"/>
<path class="st0" d="M254,473.35c-96.96,0-182.56-58.33-218.11-148.62c-3.24-8.18,0.81-17.47,9.01-20.71
	c8.18-3.19,17.49,0.79,20.73,9.03C96.32,391.01,170.27,441.39,254,441.39c111.59,0,202.39-90.8,202.39-202.39
	S365.59,36.61,254,36.61c-83.73,0-157.67,50.38-188.37,128.34c-3.26,8.25-12.55,12.23-20.73,9.03c-8.2-3.24-12.25-12.53-9.01-20.71
	C71.44,62.98,157.04,4.65,254,4.65c129.21,0,234.35,105.14,234.35,234.35S383.21,473.35,254,473.35z"/>
</svg>
