<?xml version="1.0" encoding="utf-8"?>
<!-- Generator: Adobe Illustrator 24.0.0, SVG Export Plug-In . SVG Version: 6.00 Build 0)  -->
<svg version="1.1" id="Layer_1" xmlns="http://www.w3.org/2000/svg" xmlns:xlink="http://www.w3.org/1999/xlink" x="0px" y="0px"
	 viewBox="0 0 244.09 247.04" style="enable-background:new 0 0 244.09 247.04;" xml:space="preserve">
<style type="text/css">
	.st0{fill:#D8D8D8;}
</style>
<g>
	<path class="st0" d="M201.46,36.89C184.89,13.79,158.05,0,129.66,0C80.98,0,41.38,39.61,41.38,88.29s39.6,88.29,88.29,88.29
		c29.29,0,56.57-14.47,73.05-38.7c-6.51-5.48-15.02-8.73-24.2-8.73c-6.95,0-13.46,1.78-19.03,5.08c-8.77,5.7-19.04,8.89-29.81,8.89
		c-30.23,0-54.83-24.6-54.83-54.83c0-30.23,24.6-54.83,54.83-54.83c9.98,0,19.6,2.83,27.98,7.81c5.58,3.3,11.94,4.9,18.89,4.9
		c6.99,0,13.59-1.88,19.22-5.19l5.37-3.85L201.46,36.89z"/>
	<g>
		<g>
			<path class="st0" d="M240.79,240.23c-69.18,0-138.35,0-207.53,0c-9.99,0-19.98,0-29.97,0c-4.39,0-4.39,6.82,0,6.82
				c69.18,0,138.35,0,207.53,0c9.99,0,19.98,0,29.97,0C245.18,247.04,245.19,240.23,240.79,240.23L240.79,240.23z"/>
		</g>
		<g>
			<path class="st0" d="M203.49,218.93c-47.4,0-94.8,0-142.2,0c-6.9,0-13.8,0-20.7,0c-4.39,0-4.39,6.82,0,6.82
				c47.4,0,94.8,0,142.2,0c6.9,0,13.8,0,20.7,0C207.88,225.74,207.88,218.93,203.49,218.93L203.49,218.93z"/>
		</g>
		<g>
			<path class="st0" d="M180.43,197.63c-38.93,0-77.86,0-116.78,0c-4.39,0-4.39,6.82,0,6.82c38.93,0,77.86,0,116.78,0
				C184.82,204.45,184.83,197.63,180.43,197.63L180.43,197.63z"/>
		</g>
	</g>
</g>
</svg>
