<?xml version="1.0" encoding="utf-8"?>
<!-- Generator: Adobe Illustrator 24.0.0, SVG Export Plug-In . SVG Version: 6.00 Build 0)  -->
<svg version="1.1" id="Layer_1" xmlns="http://www.w3.org/2000/svg" xmlns:xlink="http://www.w3.org/1999/xlink" x="0px" y="0px"
	 viewBox="0 0 67.2 331.96" style="enable-background:new 0 0 67.2 331.96;" xml:space="preserve">
<style type="text/css">
	.st0{fill:#D51F36;}
</style>
<g>
	<g>
		<path class="st0" d="M9.27,327.49c0-94.08,0-188.16,0-282.25c0-13.59,0-27.18,0-40.76C9.27-1.49,0-1.5,0,4.48
			c0,94.08,0,188.16,0,282.25c0,13.59,0,27.18,0,40.76C0,333.45,9.27,333.46,9.27,327.49L9.27,327.49z"/>
	</g>
	<g>
		<path class="st0" d="M38.23,276.76c0-64.46,0-128.93,0-193.39c0-9.39,0-18.77,0-28.16c0-5.96-9.27-5.97-9.27,0
			c0,64.46,0,128.93,0,193.39c0,9.39,0,18.77,0,28.16C28.97,282.72,38.23,282.73,38.23,276.76L38.23,276.76z"/>
	</g>
	<g>
		<path class="st0" d="M67.2,245.4c0-52.94,0-105.89,0-158.83c0-5.96-9.27-5.97-9.27,0c0,52.94,0,105.89,0,158.83
			C57.93,251.36,67.2,251.37,67.2,245.4L67.2,245.4z"/>
	</g>
</g>
</svg>
