<?xml version="1.0" encoding="utf-8"?>
<!-- Generator: Adobe Illustrator 24.0.0, SVG Export Plug-In . SVG Version: 6.00 Build 0)  -->
<svg version="1.1" id="Layer_1" xmlns="http://www.w3.org/2000/svg" xmlns:xlink="http://www.w3.org/1999/xlink" x="0px" y="0px"
	 viewBox="0 0 453.58 468.7" style="enable-background:new 0 0 453.58 468.7;" xml:space="preserve">
<style type="text/css">
	.st0{fill:#FFFFFF;}
</style>
<path class="st0" d="M165.11,218.37h308.91c8.82,0,15.98,7.16,15.98,15.98c0,8.82-7.16,15.98-15.98,15.98H165.11
	c-8.82,0-15.98-7.16-15.98-15.98C149.13,225.53,156.29,218.37,165.11,218.37z"/>
<path class="st0" d="M250.33,133.15c4.09,0,8.18,1.55,11.29,4.69c6.24,6.24,6.24,16.36,0,22.61l-73.93,73.92l73.93,73.93
	c6.24,6.24,6.24,16.36,0,22.61c-6.25,6.24-16.36,6.24-22.61,0l-85.22-85.22c-6.24-6.24-6.24-16.36,0-22.6l85.22-85.22
	C242.15,134.71,246.24,133.15,250.33,133.15z"/>
<path class="st0" d="M234.35,0c96.96,0,182.56,58.33,218.11,148.62c3.24,8.18-0.81,17.47-9.01,20.71
	c-8.18,3.19-17.49-0.79-20.73-9.03C392.02,82.34,318.08,31.96,234.35,31.96c-111.59,0-202.39,90.8-202.39,202.39
	s90.8,202.39,202.39,202.39c83.73,0,157.67-50.38,188.37-128.34c3.26-8.25,12.55-12.23,20.73-9.03c8.2,3.24,12.25,12.53,9.01,20.71
	C416.91,410.37,331.31,468.7,234.35,468.7C105.14,468.7,0,363.56,0,234.35S105.14,0,234.35,0z"/>
</svg>
