<?xml version="1.0" encoding="utf-8"?>
<!-- Generator: Adobe Illustrator 24.0.0, SVG Export Plug-In . SVG Version: 6.00 Build 0)  -->
<svg version="1.1" id="Layer_1" xmlns="http://www.w3.org/2000/svg" xmlns:xlink="http://www.w3.org/1999/xlink" x="0px" y="0px"
	 viewBox="0 0 490 490" style="enable-background:new 0 0 490 490;" xml:space="preserve">
<style type="text/css">
	.st0{fill:#FFFFFF;}
</style>
<path class="st0" d="M324.89,260.98H15.98C7.16,260.98,0,253.82,0,245c0-8.82,7.16-15.98,15.98-15.98h308.91
	c8.82,0,15.98,7.16,15.98,15.98C340.87,253.82,333.71,260.98,324.89,260.98z"/>
<path class="st0" d="M239.67,346.19c-4.09,0-8.18-1.55-11.29-4.69c-6.24-6.24-6.24-16.36,0-22.61l73.93-73.92l-73.93-73.93
	c-6.24-6.24-6.24-16.36,0-22.61c6.25-6.24,16.36-6.24,22.61,0l85.22,85.22c6.24,6.24,6.24,16.36,0,22.6l-85.22,85.22
	C247.85,344.64,243.77,346.19,239.67,346.19z"/>
<path class="st0" d="M255.65,479.35c-96.96,0-182.56-58.33-218.11-148.62c-3.24-8.18,0.81-17.47,9.01-20.71
	c8.18-3.19,17.49,0.79,20.73,9.03c30.7,77.95,104.65,128.34,188.37,128.34c111.59,0,202.39-90.8,202.39-202.39
	S367.24,42.61,255.65,42.61c-83.73,0-157.67,50.38-188.37,128.34c-3.26,8.25-12.55,12.23-20.73,9.03
	c-8.2-3.24-12.25-12.53-9.01-20.71C73.1,68.98,158.69,10.65,255.65,10.65C384.86,10.65,490,115.79,490,245
	S384.86,479.35,255.65,479.35z"/>
</svg>
