<?xml version="1.0" encoding="utf-8"?>
<!-- Generator: Adobe Illustrator 24.0.0, SVG Export Plug-In . SVG Version: 6.00 Build 0)  -->
<svg version="1.1" id="Capa_1" xmlns="http://www.w3.org/2000/svg" xmlns:xlink="http://www.w3.org/1999/xlink" x="0px" y="0px"
	 viewBox="0 0 512.56 513.64" style="enable-background:new 0 0 512.56 513.64;" xml:space="preserve">
<style type="text/css">
	.st0{fill:#FFFFFF;}
</style>
<g>
	<g>
		<path class="st0" d="M499.12,376.96l-71.68-71.68c-25.6-25.6-69.12-15.36-79.36,17.92c-7.68,23.04-33.28,35.84-56.32,30.72
			c-51.2-12.8-120.32-79.36-133.12-133.12c-7.68-23.04,7.68-48.64,30.72-56.32c33.28-10.24,43.52-53.76,17.92-79.36L135.6,13.44
			c-20.48-17.92-51.2-17.92-69.12,0L17.84,62.08c-48.64,51.2,5.12,186.88,125.44,307.2s256,176.64,307.2,125.44l48.64-48.64
			C517.04,425.6,517.04,394.88,499.12,376.96z"/>
	</g>
</g>
</svg>
