<?xml version="1.0" encoding="utf-8"?>
<!-- Generator: Adobe Illustrator 24.0.0, SVG Export Plug-In . SVG Version: 6.00 Build 0)  -->
<svg version="1.1" id="Capa_1" xmlns="http://www.w3.org/2000/svg" xmlns:xlink="http://www.w3.org/1999/xlink" x="0px" y="0px"
	 viewBox="0 0 31.41 31.42" style="enable-background:new 0 0 31.41 31.42;" xml:space="preserve">
<style type="text/css">
	.st0{fill:#FFFDFD;}
</style>
<g>
	<g>
		<path class="st0" d="M28.75,6.97l-0.47,0.15l-2.5,0.22l-0.71,1.13l-0.51-0.16l-1.99-1.8l-0.29-0.93l-0.39-1l-1.25-1.12l-1.48-0.29
			l-0.03,0.68l1.45,1.41l0.71,0.83l-0.8,0.42l-0.65-0.19l-0.97-0.41l0.03-0.78L17.63,4.6L17.2,6.44l-1.28,0.29l0.13,1.03l1.67,0.32
			l0.29-1.64l1.38,0.2l0.64,0.38h1.03l0.7,1.41l1.87,1.9l-0.14,0.74l-1.51-0.19l-2.6,1.31l-1.88,2.25l-0.24,1H16.6l-1.25-0.58
			l-1.22,0.58l0.3,1.28l0.53-0.61l0.93-0.03l-0.06,1.15l0.77,0.23l0.77,0.87l1.26-0.35l1.44,0.23l1.67,0.45l0.83,0.1l1.41,1.6
			l2.73,1.6l-1.76,3.37l-1.86,0.87l-0.71,1.93l-2.7,1.8l-0.29,1.04c6.89-1.66,12.02-7.85,12.02-15.25
			C31.41,12.47,30.43,9.47,28.75,6.97z"/>
		<path class="st0" d="M17.51,23.92l-1.14-2.12l1.05-2.19l-1.05-0.31l-1.18-1.18l-2.61-0.59l-0.87-1.81v1.08h-0.38l-2.25-3.05v-2.51
			L7.43,8.55L4.81,9.01H3.04L2.15,8.43l1.13-0.9L2.16,7.79C0.79,10.12,0,12.82,0,15.71c0,8.67,7.03,15.71,15.7,15.71
			c0.67,0,1.32-0.06,1.97-0.14l-0.16-1.9c0,0,0.72-2.83,0.72-2.92C18.23,26.36,17.51,23.92,17.51,23.92z"/>
		<path class="st0" d="M5.84,5.07l2.79-0.39l1.29-0.7l1.45,0.42l2.31-0.13l0.79-1.24l1.15,0.19l2.81-0.26l0.77-0.85l1.09-0.73
			l1.54,0.23l0.56-0.09C20.36,0.55,18.1,0,15.7,0C10.83,0,6.47,2.22,3.59,5.71H3.6L5.84,5.07z M16.37,1.56l1.6-0.88L19,1.27
			l-1.49,1.13l-1.42,0.14l-0.64-0.42L16.37,1.56z M11.62,1.69l0.71,0.29l0.93-0.29l0.5,0.88l-2.14,0.56l-1.03-0.6
			C10.59,2.53,11.59,1.88,11.62,1.69z"/>
	</g>
</g>
</svg>
