<?xml version="1.0" encoding="utf-8"?>
<!-- Generator: Adobe Illustrator 24.0.0, SVG Export Plug-In . SVG Version: 6.00 Build 0)  -->
<svg version="1.1" id="Capa_1" xmlns="http://www.w3.org/2000/svg" xmlns:xlink="http://www.w3.org/1999/xlink" x="0px" y="0px"
	 viewBox="0 0 51.97 96.12" style="enable-background:new 0 0 51.97 96.12;" xml:space="preserve">
<style type="text/css">
	.st0{fill:#FFFFFF;}
</style>
<g>
	<path class="st0" d="M50.01,0.02L37.55,0c-14,0-23.05,9.28-23.05,23.66v10.91H1.96C0.88,34.56,0,35.44,0,36.52v15.8
		c0,1.08,0.88,1.96,1.96,1.96h12.53v39.88c0,1.08,0.88,1.96,1.96,1.96H32.8c1.08,0,1.96-0.88,1.96-1.96V54.29h14.65
		c1.08,0,1.96-0.88,1.96-1.96l0.01-15.8c0-0.52-0.21-1.02-0.57-1.39s-0.87-0.58-1.39-0.58H34.76v-9.25c0-4.44,1.06-6.7,6.85-6.7
		l8.4,0c1.08,0,1.96-0.88,1.96-1.96V1.98C51.97,0.9,51.09,0.02,50.01,0.02z"/>
</g>
</svg>
