<?xml version="1.0" encoding="utf-8"?>
<!-- Generator: Adobe Illustrator 24.0.0, SVG Export Plug-In . SVG Version: 6.00 Build 0)  -->
<svg version="1.1" id="Layer_1" xmlns="http://www.w3.org/2000/svg" xmlns:xlink="http://www.w3.org/1999/xlink" x="0px" y="0px"
	 viewBox="0 0 512 384" style="enable-background:new 0 0 512 384;" xml:space="preserve">
<style type="text/css">
	.st0{fill:#FFFFFF;}
</style>
<g>
	<g>
		<g>
			<path class="st0" d="M10.69,31.16C80.96,90.67,204.26,195.36,240.5,228.01c4.87,4.41,10.08,6.65,15.5,6.65
				c5.41,0,10.61-2.22,15.47-6.6c36.27-32.68,159.57-137.38,229.84-196.9c4.38-3.7,5.04-10.2,1.5-14.72
				C494.63,5.99,482.42,0,469.33,0H42.67C29.58,0,17.38,5.99,9.19,16.44C5.65,20.96,6.31,27.46,10.69,31.16z"/>
			<path class="st0" d="M505.81,63.41c-3.78-1.76-8.23-1.15-11.38,1.54c-77.93,66.06-177.39,150.74-208.68,178.94
				c-17.56,15.85-41.94,15.85-59.54-0.02c-33.35-30.05-145.04-125-208.66-178.92c-3.17-2.69-7.63-3.28-11.38-1.54
				C2.42,65.16,0,68.93,0,73.08v268.25C0,364.86,19.14,384,42.67,384h426.67c23.53,0,42.67-19.14,42.67-42.67V73.08
				C512,68.93,509.58,65.15,505.81,63.41z"/>
		</g>
	</g>
</g>
</svg>
