<?xml version="1.0" encoding="utf-8"?>
<!-- Generator: Adobe Illustrator 24.0.0, SVG Export Plug-In . SVG Version: 6.00 Build 0)  -->
<svg version="1.1" id="Layer_1" xmlns="http://www.w3.org/2000/svg" xmlns:xlink="http://www.w3.org/1999/xlink" x="0px" y="0px"
	 viewBox="0 0 341.33 512" style="enable-background:new 0 0 341.33 512;" xml:space="preserve">
<style type="text/css">
	.st0{fill:#FFFFFF;}
</style>
<g>
	<g>
		<path class="st0" d="M170.67,0C76.56,0,0,76.56,0,170.67c0,28.25,7.06,56.26,20.49,81.1L161.33,506.5c1.88,3.4,5.45,5.5,9.33,5.5
			c3.89,0,7.46-2.1,9.33-5.5l140.9-254.81c13.38-24.76,20.44-52.77,20.44-81.02C341.33,76.56,264.77,0,170.67,0z M170.67,256
			c-47.05,0-85.33-38.28-85.33-85.33s38.28-85.33,85.33-85.33S256,123.61,256,170.67S217.72,256,170.67,256z"/>
	</g>
</g>
</svg>
