<?xml version="1.0" encoding="utf-8"?>
<!-- Generator: Adobe Illustrator 24.0.0, SVG Export Plug-In . SVG Version: 6.00 Build 0)  -->
<svg version="1.1" id="Layer_1" xmlns="http://www.w3.org/2000/svg" xmlns:xlink="http://www.w3.org/1999/xlink" x="0px" y="0px"
	 viewBox="0 0 57.93 137.83" style="enable-background:new 0 0 57.93 137.83;" xml:space="preserve">
<style type="text/css">
	.st0{fill:#FFFFFF;}
</style>
<g>
	<g>
		<path class="st0" d="M7.99,135.97c0-39.06,0-78.12,0-117.18c0-5.64,0-11.28,0-16.92c0-2.48-7.99-2.48-7.99,0
			c0,39.06,0,78.12,0,117.18c0,5.64,0,11.28,0,16.92C0,138.44,7.99,138.45,7.99,135.97L7.99,135.97z"/>
	</g>
	<g>
		<path class="st0" d="M32.96,114.9c0-26.76,0-53.53,0-80.29c0-3.9,0-7.79,0-11.69c0-2.48-7.99-2.48-7.99,0c0,26.76,0,53.53,0,80.29
			c0,3.9,0,7.79,0,11.69C24.97,117.38,32.96,117.38,32.96,114.9L32.96,114.9z"/>
	</g>
	<g>
		<path class="st0" d="M57.93,101.88c0-21.98,0-43.96,0-65.94c0-2.48-7.99-2.48-7.99,0c0,21.98,0,43.96,0,65.94
			C49.94,104.36,57.93,104.37,57.93,101.88L57.93,101.88z"/>
	</g>
</g>
</svg>
