<?xml version="1.0" encoding="utf-8"?>
<!-- Generator: Adobe Illustrator 24.0.0, SVG Export Plug-In . SVG Version: 6.00 Build 0)  -->
<svg version="1.1" id="Capa_1" xmlns="http://www.w3.org/2000/svg" xmlns:xlink="http://www.w3.org/1999/xlink" x="0px" y="0px"
	 viewBox="0 0 496 496" style="enable-background:new 0 0 496 496;" xml:space="preserve">
<style type="text/css">
	.st0{fill:#878787;}
</style>
<g>
	<path class="st0" d="M180.78,274.43c-35.72,0-65.14-27.48-68.24-62.4c-9.2-2.02-17.18-8.21-21.3-16.9
		c-1.61-3.4-0.16-7.47,3.24-9.09c3.4-1.61,7.47-0.16,9.09,3.24c2.82,5.97,8.92,9.82,15.52,9.82c3.76,0,6.82,3.05,6.82,6.82
		c0,30.26,24.61,54.87,54.86,54.87c18.54,0,35.69-9.26,45.89-24.78c2.07-3.15,6.3-4.02,9.45-1.96c3.15,2.07,4.02,6.3,1.95,9.45
		C225.34,262.86,203.92,274.43,180.78,274.43z"/>
	<path class="st0" d="M246.59,168.15H99.24c-3.76,0-6.82-3.05-6.82-6.82c0-43.27,28-78.36,69.68-87.32c3.69-0.8,7.32,1.55,8.1,5.24
		c0.79,3.69-1.55,7.31-5.23,8.1c-33.03,7.11-55.89,33.66-58.63,67.16h140.26c3.76,0,6.82,3.05,6.82,6.82
		C253.41,165.09,250.36,168.15,246.59,168.15z"/>
	<path class="st0" d="M262.08,148.05c-3.1,0-5.9-2.12-6.64-5.26c-6.45-27.41-27.57-48.51-55.13-55.07
		c-3.67-0.87-5.93-4.55-5.06-8.21c0.87-3.66,4.54-5.93,8.21-5.06c32.62,7.75,57.63,32.75,65.26,65.21c0.87,3.67-1.41,7.34-5.08,8.21
		C263.13,147.99,262.59,148.05,262.08,148.05z"/>
	<path class="st0" d="M200.24,168.15h-34.11c-3.77,0-6.82-3.05-6.82-6.82V151.2c0-3.77,3.06-6.82,6.82-6.82
		c3.77,0,6.82,3.05,6.82,6.82v3.31h20.46v-2.35c0-3.77,3.06-6.82,6.82-6.82c3.77,0,6.82,3.05,6.82,6.82v9.17
		C207.07,165.09,204.01,168.15,200.24,168.15z"/>
	<path class="st0" d="M200.24,135.21c-3.77,0-6.82-3.05-6.82-6.82V69.42c-3.46-0.57-6.18-0.82-10.23-0.82
		c-3.65,0-7.46,0.2-10.23,0.45v58.17c0,3.77-3.06,6.82-6.82,6.82c-3.77,0-6.82-3.05-6.82-6.82v-63.5c0-7.44,7.7-8.76,23.88-8.76
		c7.21,0,11.34,0.77,18.2,2.03c3.23,0.6,5.68,3.44,5.68,6.73v64.69C207.07,132.16,204.01,135.21,200.24,135.21z"/>
	<path class="st0" d="M236.48,195.44H77.44c-3.77,0-6.82-3.05-6.82-6.82v-27.29c0-3.77,3.06-6.82,6.82-6.82h169.15
		c3.76,0,6.82,3.05,6.82,6.82c0,3.77-3.06,6.82-6.82,6.82H84.26v13.64h152.23c3.77,0,6.82,3.05,6.82,6.82
		S240.25,195.44,236.48,195.44z"/>
	<path class="st0" d="M183.19,393.29H43.32c-3.77,0-6.82-3.05-6.82-6.82v-10.6c0-53.79,41.12-100.51,95.65-108.68
		c2.53-0.37,5.08,0.7,6.57,2.79c9.47,13.28,26.85,21.86,44.29,21.86c16.48,0,31.61-7.96,41.52-21.83c1.49-2.09,4.05-3.17,6.57-2.78
		c14.32,2.17,27.8,7.08,40.06,14.6c3.21,1.97,4.22,6.17,2.24,9.38c-1.97,3.21-6.16,4.22-9.38,2.25
		c-9.56-5.86-19.98-9.92-31.03-12.06c-12.47,15.36-30.47,24.09-49.99,24.09c-20.18,0-40.39-9.36-52.74-24.14
		c-45.95,8.75-80.13,48.72-80.13,94.51v3.78h133.04c3.77,0,6.82,3.05,6.82,6.82C190.01,390.24,186.95,393.29,183.19,393.29z"/>
	<path class="st0" d="M264.6,325.8c-0.25,0-0.5-0.01-0.75-0.04c-3.75-0.41-6.45-3.78-6.04-7.53l2.98-27.22
		c0.41-3.74,3.79-6.46,7.53-6.04c3.75,0.41,6.45,3.78,6.04,7.53l-2.98,27.22C270.99,323.21,268.03,325.8,264.6,325.8z"/>
	<path class="st0" d="M183.19,393.29h-81.63c-3.48,0-6.4-2.62-6.78-6.07L83.99,289.1c-0.28-2.61,0.95-5.15,3.19-6.54
		c7.64-4.75,15.76-7.38,23.62-9.92l1.98-0.64c3.46-1.1,7.17,0.65,8.48,4.02l18.98,49.05h78.27l19.4-50.65
		c1.28-3.32,4.89-5.11,8.28-4.11c6.25,1.83,12.35,3.68,18.26,6.32c3.44,1.54,4.98,5.58,3.44,9.02c-1.54,3.44-5.58,4.97-9.01,3.44
		c-3.33-1.5-6.85-2.73-10.49-3.88l-18.81,49.12c-1.01,2.64-3.54,4.38-6.37,4.38h-87.63c-2.82,0-5.34-1.73-6.36-4.36l-18.34-47.39
		c-4.48,1.49-8.78,3.06-12.82,5.11l9.63,87.56h75.52c3.77,0,6.82,3.06,6.82,6.82C190.01,390.24,186.95,393.29,183.19,393.29z"/>
	<path class="st0" d="M318.03,320.18c-35.72,0-65.14-27.48-68.24-62.4c-9.12-2.01-17.06-8.14-21.21-16.72
		c-1.64-3.39-0.21-7.47,3.18-9.11c3.38-1.63,7.47-0.22,9.11,3.18c2.85,5.9,8.92,9.72,15.47,9.72c3.76,0,6.82,3.05,6.82,6.82
		c0,30.25,24.61,54.86,54.86,54.86c30.25,0,54.86-24.61,54.86-54.86c0-3.77,3.06-6.82,6.82-6.82c6.78,0,12.94-4,15.69-10.19
		c1.53-3.45,5.56-5.01,9.01-3.46c3.44,1.53,4.99,5.56,3.46,9c-4.04,9.07-12.15,15.52-21.6,17.58
		C383.17,292.71,353.75,320.18,318.03,320.18z"/>
	<path class="st0" d="M401.63,209.08H236.49c-3.76,0-6.82-3.05-6.82-6.82c0-38.57,30.13-76.66,68.59-86.71
		c3.65-0.93,7.38,1.23,8.33,4.88c0.95,3.64-1.23,7.37-4.88,8.33c-30.46,7.96-54.79,36.46-58.03,66.69h150.76
		c-3.23-29.75-27.09-58.1-56.97-66.4c-3.63-1.02-5.76-4.77-4.75-8.4c1.01-3.62,4.77-5.73,8.4-4.75
		c38.39,10.67,67.33,47.81,67.33,86.37C408.45,206.03,405.4,209.08,401.63,209.08z"/>
	<path class="st0" d="M336.69,209.08h-34.12c-3.76,0-6.82-3.05-6.82-6.82v-15.85c0-3.77,3.06-6.82,6.82-6.82
		c3.77,0,6.82,3.05,6.82,6.82v9.03h20.47v-7.89c0-3.77,3.06-6.82,6.82-6.82c3.76,0,6.82,3.05,6.82,6.82v14.71
		C343.52,206.03,340.46,209.08,336.69,209.08z"/>
	<path class="st0" d="M302.58,170.13c-3.76,0-6.82-3.05-6.82-6.82v-53.85c0-7.44,7.7-8.75,23.88-8.75c7.27,0,11.42,0.77,18.3,2.05
		c3.23,0.6,5.57,3.43,5.57,6.71v53.62c0,3.77-3.06,6.82-6.82,6.82c-3.77,0-6.82-3.05-6.82-6.82v-47.92
		c-3.43-0.56-6.15-0.82-10.23-0.82c-3.66,0-7.46,0.2-10.24,0.45v48.52C309.4,167.08,306.35,170.13,302.58,170.13z"/>
	<path class="st0" d="M425.39,243.2H220.71c-3.77,0-6.82-3.05-6.82-6.82v-34.11c0-3.77,3.06-6.82,6.82-6.82h204.68
		c3.76,0,6.82,3.05,6.82,6.82v34.11C432.21,240.14,429.15,243.2,425.39,243.2z M227.53,229.55h191.03v-20.47H227.53V229.55z"/>
	<path class="st0" d="M452.68,441.05h-272.9c-3.77,0-6.82-3.05-6.82-6.82v-12.61c0-53.78,41.25-100.49,95.95-108.68
		c2.53-0.36,5.08,0.7,6.57,2.79c9.46,13.27,26.97,21.85,44.59,21.85c16.6,0,31.27-7.75,41.32-21.82c1.5-2.09,4.05-3.15,6.58-2.78
		c53.04,8.03,91.54,53.73,91.54,108.63v12.61C459.5,438,456.44,441.05,452.68,441.05z M186.6,427.41h259.26v-5.78
		c0-46.73-31.73-85.84-76.01-94.47c-12.47,15.36-30.38,24.08-49.79,24.08c-20.36,0-40.68-9.35-53.03-24.13
		c-46.12,8.76-80.43,48.74-80.43,94.52V427.41z"/>
	<path class="st0" d="M394.44,441.05H238.81c-3.48,0-6.4-2.62-6.78-6.08l-10.79-98.62c-0.28-2.6,0.95-5.15,3.19-6.54
		c8.55-5.31,17.7-8.49,25.61-11.06c3.46-1.11,7.19,0.67,8.48,4.06l19,50.01h78.22l19.4-51.13c1.27-3.33,4.9-5.12,8.29-4.13
		l3.02,0.87c7.48,2.14,15.21,4.35,22.49,8.72c2.28,1.37,3.56,3.94,3.28,6.59l-10.99,101.22
		C400.85,438.42,397.93,441.05,394.44,441.05z M244.93,427.41h143.39l9.83-90.56c-3.86-1.83-7.98-3.13-12.48-4.44l-18.85,49.66
		c-1.01,2.65-3.54,4.4-6.38,4.4h-87.64c-2.83,0-5.37-1.75-6.38-4.4l-18.34-48.26c-4.23,1.51-8.61,3.27-12.8,5.49L244.93,427.41z"/>
	<path class="st0" d="M319.64,203.15c-14.6,0-26.48-11.87-26.48-26.47s11.88-26.47,26.48-26.47c14.6,0,26.47,11.87,26.47,26.47
		S334.24,203.15,319.64,203.15z M319.64,163.85c-7.07,0-12.83,5.76-12.83,12.83c0,7.07,5.76,12.82,12.83,12.82
		c7.07,0,12.83-5.76,12.83-12.82C332.47,169.61,326.71,163.85,319.64,163.85z"/>
	<path class="st0" d="M183.19,165.81c-14.6,0-26.48-11.88-26.48-26.48s11.88-26.47,26.48-26.47s26.48,11.87,26.48,26.47
		S197.78,165.81,183.19,165.81z M183.19,126.51c-7.07,0-12.83,5.76-12.83,12.83c0,7.07,5.76,12.83,12.83,12.83
		c7.07,0,12.83-5.76,12.83-12.83S190.26,126.51,183.19,126.51z"/>
</g>
</svg>
