<?xml version="1.0" encoding="utf-8"?>
<!-- Generator: Adobe Illustrator 24.0.0, SVG Export Plug-In . SVG Version: 6.00 Build 0)  -->
<svg version="1.1" id="Capa_1" xmlns="http://www.w3.org/2000/svg" xmlns:xlink="http://www.w3.org/1999/xlink" x="0px" y="0px"
	 viewBox="0 0 496 496" style="enable-background:new 0 0 496 496;" xml:space="preserve">
<style type="text/css">
	.st0{fill:#878787;}
</style>
<g id="Page-1">
	<g>
		<path id="Shape" class="st0" d="M222.44,286.21c0,4.71,3.82,8.53,8.53,8.53c4.71,0,8.53-3.82,8.53-8.53
			c0-28.23-26.11-51.56-59.73-54.99v-9.01c0-4.71-3.82-8.53-8.53-8.53c-4.71,0-8.53,3.82-8.53,8.53v9.01
			c-33.62,3.41-59.73,26.76-59.73,54.99c0,28.23,26.11,51.56,59.73,54.99v76.7c-24.17-3.05-42.67-18.83-42.67-37.82
			c0-4.71-3.82-8.53-8.53-8.53c-4.71,0-8.53,3.82-8.53,8.53c0,28.23,26.11,51.56,59.73,54.99v9.01c0,4.71,3.82,8.53,8.53,8.53
			c4.71,0,8.53-3.82,8.53-8.53v-9.01c33.62-3.41,59.73-26.76,59.73-54.99c0-28.23-26.11-51.56-59.73-54.99v-76.7
			C203.95,251.44,222.44,267.22,222.44,286.21z M120.04,286.21c0-18.99,18.49-34.76,42.67-37.82v75.64
			C138.53,320.97,120.04,305.19,120.04,286.21z M222.44,380.07c0,18.99-18.49,34.76-42.67,37.82v-75.64
			C203.95,345.31,222.44,361.09,222.44,380.07z"/>
		<path class="st0" d="M22.76,249.28c-4.27-1.98-9.35-0.13-11.33,4.15C-1.42,281.07-8.04,311.2-7.96,341.67
			c0,107.58,60.29,162.13,179.2,162.13c24.03,0.38,48-2.38,71.31-8.22c4.55-1.21,7.27-5.89,6.05-10.44
			c-1.21-4.55-5.89-7.27-10.44-6.05c-21.89,5.41-44.38,7.98-66.93,7.65C62.14,486.74,9.1,439.29,9.1,341.67
			c-0.15-28.01,5.93-55.7,17.81-81.07C28.89,256.33,27.03,251.26,22.76,249.28z"/>
		<path class="st0" d="M478.44,205.14H290.7c-14.14,0-25.6,11.46-25.6,25.6v247.47c0,14.14,11.46,25.6,25.6,25.6h187.73
			c14.14,0,25.6-11.46,25.6-25.6V230.74C504.04,216.6,492.58,205.14,478.44,205.14z M486.97,478.21c0,4.71-3.82,8.53-8.53,8.53
			H290.7c-4.71,0-8.53-3.82-8.53-8.53V230.74c0-4.71,3.82-8.53,8.53-8.53h187.73c4.71,0,8.53,3.82,8.53,8.53V478.21z"/>
		<path class="st0" d="M324.84,316.07H444.3c9.43,0,17.07-7.64,17.07-17.07v-34.13c0-9.43-7.64-17.07-17.07-17.07H324.84
			c-9.43,0-17.07,7.64-17.07,17.07v34.13C307.77,308.43,315.41,316.07,324.84,316.07z M324.84,264.87H444.3v34.13H324.84V264.87z"/>
		<path class="st0" d="M341.9,341.67h-25.6c-4.71,0-8.53,3.82-8.53,8.53s3.82,8.53,8.53,8.53h25.6c4.71,0,8.53-3.82,8.53-8.53
			S346.62,341.67,341.9,341.67z"/>
		<path class="st0" d="M341.9,375.81h-25.6c-4.71,0-8.53,3.82-8.53,8.53s3.82,8.53,8.53,8.53h25.6c4.71,0,8.53-3.82,8.53-8.53
			S346.62,375.81,341.9,375.81z"/>
		<path class="st0" d="M341.9,409.94h-25.6c-4.71,0-8.53,3.82-8.53,8.53s3.82,8.53,8.53,8.53h25.6c4.71,0,8.53-3.82,8.53-8.53
			S346.62,409.94,341.9,409.94z"/>
		<path class="st0" d="M341.9,444.07h-25.6c-4.71,0-8.53,3.82-8.53,8.53s3.82,8.53,8.53,8.53h25.6c4.71,0,8.53-3.82,8.53-8.53
			S346.62,444.07,341.9,444.07z"/>
		<path class="st0" d="M401.64,341.67h-25.6c-4.71,0-8.53,3.82-8.53,8.53s3.82,8.53,8.53,8.53h25.6c4.71,0,8.53-3.82,8.53-8.53
			S406.35,341.67,401.64,341.67z"/>
		<path class="st0" d="M401.64,375.81h-25.6c-4.71,0-8.53,3.82-8.53,8.53s3.82,8.53,8.53,8.53h25.6c4.71,0,8.53-3.82,8.53-8.53
			S406.35,375.81,401.64,375.81z"/>
		<path class="st0" d="M401.64,409.94h-25.6c-4.71,0-8.53,3.82-8.53,8.53s3.82,8.53,8.53,8.53h25.6c4.71,0,8.53-3.82,8.53-8.53
			S406.35,409.94,401.64,409.94z"/>
		<path class="st0" d="M401.64,444.07h-25.6c-4.71,0-8.53,3.82-8.53,8.53s3.82,8.53,8.53,8.53h25.6c4.71,0,8.53-3.82,8.53-8.53
			S406.35,444.07,401.64,444.07z"/>
		<path class="st0" d="M461.37,341.67h-25.6c-4.71,0-8.53,3.82-8.53,8.53s3.82,8.53,8.53,8.53h25.6c4.71,0,8.53-3.82,8.53-8.53
			S466.08,341.67,461.37,341.67z"/>
		<path class="st0" d="M461.37,375.81h-25.6c-4.71,0-8.53,3.82-8.53,8.53s3.82,8.53,8.53,8.53h25.6c4.71,0,8.53-3.82,8.53-8.53
			S466.08,375.81,461.37,375.81z"/>
		<path class="st0" d="M461.37,409.94h-25.6c-4.71,0-8.53,3.82-8.53,8.53s3.82,8.53,8.53,8.53h25.6c4.71,0,8.53-3.82,8.53-8.53
			S466.08,409.94,461.37,409.94z"/>
		<path class="st0" d="M461.37,444.07h-25.6c-4.71,0-8.53,3.82-8.53,8.53s3.82,8.53,8.53,8.53h25.6c4.71,0,8.53-3.82,8.53-8.53
			S466.08,444.07,461.37,444.07z"/>
		<path class="st0" d="M46.01,2.59C23.54,23.17,63.02,86.66,86.28,119.81h-4.64c-7.93-0.03-15.54,3.11-21.14,8.72
			c-5.58,5.62-8.72,13.22-8.73,21.15c0.04,10.63,5.74,20.44,14.97,25.73c-9.96,10.54-19.34,21.6-28.11,33.15
			c-2.83,3.77-2.06,9.12,1.71,11.95s9.12,2.06,11.95-1.71c10.54-13.79,21.94-26.9,34.13-39.25h174.42
			c10.67,0,20.53-5.69,25.87-14.93c5.34-9.24,5.34-20.63,0-29.87c-5.34-9.24-15.19-14.93-25.87-14.93h-4.64
			c23.25-33.15,62.73-96.63,40.28-117.22c-10.33-9.45-22.36-2.56-32.96,3.47c-9.65,6.61-20.88,10.52-32.54,11.35
			c-9.26-0.02-18.08-3.92-24.33-10.75c-9.34-9.49-22.1-14.84-35.41-14.84c-13.32,0-26.08,5.35-35.41,14.84
			c-6.26,6.84-15.1,10.74-24.37,10.75c-11.66-0.82-22.88-4.74-32.51-11.35C68.33,0.01,56.31-6.86,46.01,2.59L46.01,2.59z
			 M269.91,140.61c3.67,3.66,4.77,9.18,2.78,13.97c-1.99,4.79-6.67,7.91-11.85,7.89H81.64c-7.07,0-12.8-5.73-12.8-12.8
			c0-7.07,5.73-12.8,12.8-12.8h179.2C264.24,136.88,267.5,138.22,269.91,140.61z M111.44,34.47c13.32,0,26.08-5.35,35.42-14.86
			c6.23-6.85,15.06-10.75,24.32-10.75s18.09,3.9,24.32,10.75c9.35,9.51,22.13,14.86,35.46,14.86c14.65-0.77,28.83-5.47,41.04-13.6
			c3.9-2.75,8.3-4.69,12.96-5.71c8.76,8.02-14.39,56.4-49.77,104.64h-21.3V77.14c0-4.71-3.82-8.53-8.53-8.53
			c-4.71,0-8.53,3.82-8.53,8.53v42.67h-51.2V77.14c0-4.71-3.82-8.53-8.53-8.53s-8.53,3.82-8.53,8.53v42.67h-21.27
			C71.93,71.56,48.78,23.18,57.66,15.04c4.56,1.22,8.89,3.19,12.8,5.84C82.65,29.01,96.81,33.7,111.44,34.47L111.44,34.47z"/>
	</g>
</g>
</svg>
