<?xml version="1.0" encoding="utf-8"?>
<!-- Generator: Adobe Illustrator 24.0.0, SVG Export Plug-In . SVG Version: 6.00 Build 0)  -->
<svg version="1.1" id="Capa_1" xmlns="http://www.w3.org/2000/svg" xmlns:xlink="http://www.w3.org/1999/xlink" x="0px" y="0px"
	 viewBox="0 0 496 496" style="enable-background:new 0 0 496 496;" xml:space="preserve">
<style type="text/css">
	.st0{fill:#878787;}
</style>
<g>
	<path class="st0" d="M456,183.52c-19.31,0-35.47,13.77-39.19,32H340l12-16c10.32-13.77,16-30.82,16-48c0-44.11-35.89-80-80-80
		s-80,35.89-80,80c0,17.18,5.68,34.23,16,48l12,16H79.19c-3.72-18.23-19.88-32-39.19-32c-22.06,0-40,17.94-40,40v224
		c0,22.06,17.94,40,40,40h416c22.06,0,40-17.94,40-40v-224C496,201.46,478.06,183.52,456,183.52z M416,407.52h-32v-32h32V407.52z
		 M416,359.52h-32c-8.82,0-16,7.18-16,16v32c0,8.82,7.18,16,16,16h32v16h-32c-8.82,0-16,7.18-16,16v16h-16v-88
		c0-13.23-10.77-24-24-24h-72c-13.23,0-24,10.77-24,24v88h-16v-104c0-4.42-3.58-8-8-8h-56c-4.42,0-8,3.58-8,8v6.31
		c0,34.76-9.9,68.41-28.46,97.69H95.42c21.27-30.71,32.58-66.58,32.58-104c0-4.42-3.58-8-8-8H80v-16h24c13.23,0,24-10.77,24-24
		v-22.7c0-6.9,4.4-12.99,10.94-15.18l39.17-13.06c13.09-4.37,21.89-16.57,21.89-30.36v-6.7h16v13.41c0,17.24-10.99,32.5-27.35,37.94
		l-33.7,11.23c-6.54,2.18-10.94,8.28-10.94,15.18v10.23c0,13.23,10.77,24,24,24h160c13.23,0,24-10.77,24-24v-88h16v88
		c0,13.23,10.77,24,24,24h24V359.52z M336,471.52h-88v-88c0-4.42,3.58-8,8-8h72c4.42,0,8,3.58,8,8V471.52z M200,471.52h-65.7
		c16.58-29.28,25.41-62.14,25.69-96H200V471.52z M80,327.52v-96h104v6.7c0,6.9-4.4,12.99-10.94,15.18l-39.17,13.06
		C120.8,270.82,112,283.02,112,296.82v22.7c0,4.42-3.58,8-8,8H80z M416,327.52h-24c-4.42,0-8-3.58-8-8v-88h32V327.52z M288,87.52
		c35.29,0,64,28.71,64,64c0,13.75-4.54,27.39-12.8,38.41L288,258.18l-51.2-68.26c-8.26-11.02-12.8-24.66-12.8-38.41
		C224,116.23,252.71,87.52,288,87.52z M312,271.52c0,8.67-10.99,16-24,16s-24-7.33-24-16c0-3.84,2.31-7.55,6.15-10.46l11.45,15.26
		c1.5,2.02,3.88,3.2,6.4,3.2s4.89-1.18,6.4-3.2l11.45-15.26C309.69,263.97,312,267.68,312,271.52L312,271.52z M260.52,248.21
		c-7.89,5.94-12.52,14.32-12.52,23.31c0,17.65,17.94,32,40,32s40-14.35,40-32c0-8.99-4.63-17.37-12.52-23.31L328,231.52h8v88
		c0,4.42-3.58,8-8,8H168c-4.42,0-8-3.58-8-8v-10.23l33.71-11.24c22.9-7.63,38.29-28.98,38.29-53.12v-13.41h16L260.52,248.21z
		 M16,223.52c0-13.23,10.77-24,24-24s24,10.77,24,24v192.02c-6.69-5.03-15-8.02-24-8.02s-17.31,2.98-24,8.02V223.52z M16,447.52
		c0-13.23,10.77-24,24-24s24,10.77,24,24c0,4.42,3.58,8,8,8s8-3.58,8-8v-72h31.82c-1.51,32.06-12.11,62.64-30.86,88.92l-5.06,7.08
		H40C26.77,471.52,16,460.75,16,447.52L16,447.52z M456,471.52h-72v-16h40c4.42,0,8-3.58,8-8c0-13.23,10.77-24,24-24s24,10.77,24,24
		S469.23,471.52,456,471.52z M480,415.54c-6.69-5.03-15-8.02-24-8.02s-17.31,2.98-24,8.02V223.52c0-13.23,10.77-24,24-24
		s24,10.77,24,24V415.54z"/>
	<path class="st0" d="M288,183.52c22.06,0,40-17.94,40-40s-17.94-40-40-40s-40,17.94-40,40S265.94,183.52,288,183.52z M288,119.52
		c13.23,0,24,10.77,24,24c0,13.23-10.77,24-24,24s-24-10.77-24-24S274.77,119.52,288,119.52z"/>
</g>
</svg>
