<?xml version="1.0" encoding="utf-8"?>
<!-- Generator: Adobe Illustrator 24.0.0, SVG Export Plug-In . SVG Version: 6.00 Build 0)  -->
<svg version="1.1" id="Capa_1" xmlns="http://www.w3.org/2000/svg" xmlns:xlink="http://www.w3.org/1999/xlink" x="0px" y="0px"
	 viewBox="0 0 512 512" style="enable-background:new 0 0 512 512;" xml:space="preserve">
<style type="text/css">
	.st0{fill:#878787;}
</style>
<path class="st0" d="M497.36,401.64c19.5,19.5,19.5,51.21,0,70.71c-0.03,0.03-0.06,0.06-0.09,0.09l-34.21,33.79
	c-3.9,3.85-8.98,5.77-14.05,5.77c-5.16,0-10.32-1.98-14.23-5.95c-7.76-7.86-7.68-20.52,0.18-28.29L454.97,458H134
	c-44.11,0-80-35.89-80-80V56.55L34.05,76.24C26.18,84,13.52,83.91,5.76,76.05s-7.67-20.53,0.19-28.29l33.79-33.33
	c19.44-19.18,51.07-19.18,70.52,0l33.79,33.33c7.86,7.76,7.95,20.42,0.19,28.29C140.33,80.01,135.17,82,130,82
	c-5.07,0-10.15-1.92-14.05-5.76L94,54.58V378c0,22.05,17.95,40,40,40h322.99l-22.04-21.77c-7.86-7.76-7.94-20.43-0.18-28.29
	c7.76-7.86,20.43-7.94,28.29-0.18l34.21,33.79C497.3,401.59,497.33,401.61,497.36,401.64z M452,0H193c-11.07,0-20.04,9-20,20.07
	C173.04,31.09,181.99,40,193,40h259c11.05,0,20,8.95,20,20v260c0,11.02,8.91,19.96,19.93,20C503,340.04,512,331.07,512,320V60
	C512,26.86,485.14,0,452,0z M294,342.89c11.05,0,20-8.95,20-20v-89.02c0-30.33-24.67-55-55-55c-13.29,0-25.48,4.73-35,12.61
	c-9.52-7.87-21.71-12.61-35-12.61c-7.63,0-14.9,1.57-21.51,4.39C163.93,180,159.2,178,154,178c-11.05,0-20,8.95-20,20v125
	c0,11.05,8.95,20,20,20s20-8.95,20-20v-89.13c0-8.27,6.73-15,15-15s15,6.73,15,15V323c0,11.05,8.95,20,20,20s20-8.95,20-20v-89.13
	c0-8.27,6.73-15,15-15s15,6.73,15,15v89.02C274,333.94,282.95,342.89,294,342.89z M384.75,108c-0.11,0-0.21,0.02-0.31,0.02
	c-0.1,0-0.2-0.02-0.31-0.02C358.7,108,338,128.72,338,154.18c0,11.04,8.95,20,20,20s20-8.96,20-20c0-3.35,2.81-6.18,6.13-6.18
	c0.11,0,0.21-0.02,0.31-0.02c0.1,0,0.2,0.02,0.31,0.02c3.18,0,5.89,2.6,6.11,5.77c-0.39,1.46-3.46,10.52-22.63,31.61
	c-11.89,13.07-23.57,23.71-23.68,23.82c-6.12,5.55-8.19,14.3-5.21,22.01c2.98,7.71,10.39,12.8,18.66,12.8h54c11.05,0,20-8.95,20-20
	s-8.95-20-20-20h-6.88c17.76-20.91,25.76-36.46,25.76-49.82C430.88,128.72,410.18,108,384.75,108z"/>
</svg>
