<?xml version="1.0" encoding="utf-8"?>
<!-- Generator: Adobe Illustrator 24.0.0, SVG Export Plug-In . SVG Version: 6.00 Build 0)  -->
<svg version="1.1" id="Capa_1" xmlns="http://www.w3.org/2000/svg" xmlns:xlink="http://www.w3.org/1999/xlink" x="0px" y="0px"
	 viewBox="0 0 496 496" style="enable-background:new 0 0 496 496;" xml:space="preserve">
<style type="text/css">
	.st0{fill:#878787;}
</style>
<g>
	<path class="st0" d="M490.22,308.45l-29.7-21.85c9.65-1.85,19.18-4.02,28.5-6.52c0.2-0.05,0.4-0.11,0.59-0.18
		c4.41-1.34,8.08-4.25,10.4-8.25c5-8.64,2.05-19.75-6.61-24.77c-13.13-7.57-24.97-16.99-35.92-26.87c4.26-0.84,8.52-1.84,12.82-2.98
		c0.33-0.09,0.65-0.2,0.97-0.32c4.25-1.39,7.79-4.27,10.04-8.18c2.41-4.19,3.04-9.07,1.78-13.74s-4.27-8.56-8.44-10.96
		c-13.72-7.92-25.94-17.27-36.05-27.53c8.57-1.67,17.9-4.59,26.87-9.77c0.21-0.13,0.42-0.25,0.63-0.39
		c3.14-1.98,5.54-4.82,6.99-8.26c1.88-4.46,1.91-9.38,0.09-13.86s-5.28-7.98-9.75-9.86c-31.61-13.29-47.78-38.36-57.44-53.33
		c-6.39-9.91-13.21-18.81-26.14-18.81s-19.75,8.9-26.14,18.81c-5.7,8.83-13.93,21.59-26.34,33.13L198.01-1.2
		c-10.64-7.8-25.37-7.66-35.85,0.32l-47.48,34.94c-4.45,3.27-5.4,9.53-2.13,13.98s9.53,5.4,13.98,2.13l47.55-34.99
		c0.05-0.04,0.11-0.08,0.16-0.12c3.48-2.68,8.39-2.73,11.93-0.14l159.91,117.65c4.43,3.25,5.39,9.49,2.14,13.91
		c-3.25,4.43-9.49,5.39-13.9,2.16L186.23,39.67c-3.53-2.59-8.33-2.59-11.86,0L26.29,148.63c-4.43,3.25-10.67,2.29-13.91-2.14
		c-1.57-2.14-2.21-4.77-1.81-7.4c0.41-2.63,1.81-4.94,3.97-6.52l47.55-34.98c4.45-3.27,5.4-9.53,2.13-13.98
		c-3.27-4.45-9.53-5.4-13.98-2.13L2.7,116.44c-6.45,4.73-10.68,11.69-11.89,19.6c-1.22,7.91,0.71,15.82,5.45,22.27
		c8.45,11.52,23.64,15.23,36.22,9.7v136.27c-11.64,4.13-20,15.25-20,28.28c0,13.04,8.36,24.15,20,28.28V495c0,5.52,4.48,10,10,10
		h407.96c5.52,0,10-4.48,10-10V360.01c12.57,5.54,27.77,1.82,36.22-9.7C506.42,336.99,503.52,318.21,490.22,308.45z M340.15,170.54
		c9.23,0,18.34-4.24,24.2-12.23c9.76-13.32,6.87-32.11-6.44-41.86l-14.19-10.44c12.63-12.38,20.92-25.24,26.79-34.33
		c6.23-9.65,7.88-9.65,9.34-9.65c1.46,0,3.11,0,9.34,9.65c9.87,15.3,27.96,43.34,62.91,59.35c-9.11,4.5-19.75,6.84-33.84,7.5
		c-3.7,0.17-7,2.37-8.58,5.71c-1.58,3.35-1.18,7.29,1.03,10.26c12.51,16.75,29.74,32.01,50.03,44.33c-8.68,2.1-17.24,3.48-26.04,4.2
		c-3.9,0.32-7.26,2.89-8.59,6.57c-1.33,3.68-0.39,7.8,2.41,10.54c14.97,14.68,31.47,29.81,51.01,41.76
		c-13.47,3.44-27.37,6.18-41.44,8.19L330.31,190.8c-0.71-0.52-1.44-1-2.18-1.45V168C331.98,169.7,336.08,170.54,340.15,170.54z
		 M42.47,322.56h82.02c-0.63,1.76-1.09,3.59-1.38,5.48c-0.77,4.96-0.29,9.92,1.34,14.52H42.47c-5.51,0-10-4.48-10-10
		C32.47,327.04,36.96,322.56,42.47,322.56z M52.47,485V362.56h100.18c0.04,0,0.09,0,0.13,0c0.04,0,0.08,0,0.13,0h11.88V485H52.47z
		 M232.6,422.56h160v20h-160V422.56z M392.6,402.56h-160v-10c0-5.51,4.49-10,10-10h140c5.52,0,10,4.49,10,10V402.56z M232.6,462.56
		h160V485h-160V462.56z M412.6,485v-92.45c0-16.54-13.46-30-30-30h-140c-16.54,0-30,13.46-30,30V485h-27.83V346.2l127.83-94.05
		l127.83,94.05V485H412.6z M480.52,338.49c-3.24,4.43-9.49,5.39-13.9,2.15l-148.1-108.96c-3.52-2.59-8.32-2.59-11.85,0
		L158.59,340.63c-2.14,1.57-4.77,2.21-7.4,1.81c-2.63-0.41-4.94-1.81-6.52-3.95c-1.57-2.14-2.21-4.77-1.81-7.4
		c0.41-2.63,1.81-4.94,3.97-6.52l12.28-9.04c4.45-3.27,5.4-9.54,2.13-13.98c-3.27-4.45-9.53-5.4-13.98-2.13l-4.27,3.14H52.47V154.2
		L180.3,60.15l127.83,94.05v31.19c-4.87,0.73-9.59,2.63-13.67,5.74l-6.33,4.65V183c0-5.52-4.48-10-10-10H82.47
		c-5.52,0-10,4.48-10,10v60c0,5.52,4.48,10,10,10h128.1c-3.44,3.43-3.96,8.95-0.99,12.99c3.27,4.45,9.53,5.4,13.98,2.13l82.82-60.94
		c0.05-0.04,0.11-0.08,0.16-0.12c3.48-2.68,8.39-2.73,11.93-0.14l159.91,117.65C482.81,327.82,483.77,334.06,480.52,338.49z
		 M92.47,233v-40h45.22v40H92.47z M157.69,193h45.22v40h-45.22V193z M237.54,233h-14.63v-40h45.22v17.49L237.54,233z"/>
	<path class="st0" d="M180.3,154.75c16.54,0,30-13.46,30-30c0-16.54-13.46-30-30-30c-16.54,0-30,13.46-30,30
		C150.3,141.29,163.76,154.75,180.3,154.75z M180.3,114.75c5.51,0,10,4.48,10,10c0,5.51-4.49,10-10,10c-5.52,0-10-4.49-10-10
		C170.3,119.24,174.79,114.75,180.3,114.75z"/>
	<path class="st0" d="M312.6,286.75c-16.54,0-30,13.46-30,30c0,16.54,13.46,30,30,30s30-13.46,30-30
		C342.6,300.21,329.14,286.75,312.6,286.75z M312.6,326.75c-5.51,0-10-4.48-10-10s4.49-10,10-10c5.52,0,10,4.48,10,10
		S318.12,326.75,312.6,326.75z"/>
	<path class="st0" d="M88.38,75.82c2.26,0,4.53-0.76,6.4-2.32l0-0.01c4.25-3.54,4.82-9.84,1.28-14.08
		c-3.54-4.24-9.84-4.81-14.09-1.28s-4.82,9.84-1.28,14.09C82.67,74.59,85.52,75.82,88.38,75.82z"/>
	<path class="st0" d="M179.41,275.77c-4.42,3.31-5.31,9.58-2,14c1.96,2.62,4.96,4,8.01,4c2.09,0,4.19-0.65,5.99-2l0,0
		c4.42-3.32,5.31-9.58,2-14C190.1,273.35,183.83,272.46,179.41,275.77z"/>
</g>
</svg>
