<?xml version="1.0" encoding="utf-8"?>
<!-- Generator: Adobe Illustrator 24.0.0, SVG Export Plug-In . SVG Version: 6.00 Build 0)  -->
<svg version="1.1" id="Capa_1" xmlns="http://www.w3.org/2000/svg" xmlns:xlink="http://www.w3.org/1999/xlink" x="0px" y="0px"
	 viewBox="0 0 496 496" style="enable-background:new 0 0 496 496;" xml:space="preserve">
<style type="text/css">
	.st0{fill:#878787;}
</style>
<g>
	<g>
		<g>
			<path class="st0" d="M240,192v48h256v-48H240z M480,224H256v-16h224V224z"/>
			<polygon class="st0" points="256,176 272,176 272,163.94 368,90.1 464,163.94 464,176 480,176 480,156.06 368,69.9 256,156.06 
							"/>
			<path class="st0" d="M496,408c0-22.45-7.72-44.46-21.74-61.98l-7.01-8.76c-4.7-5.88-11.71-9.26-19.25-9.26
				c-5.98,0-11.58,2.2-16,6.01V320h-48v48h24.47c-5.52,12.54-8.47,26.18-8.47,40c0,23.74,17.34,43.45,40,47.28V480h-40v-72v-8h-64
				v80h-80v-24.72c22.66-3.82,40-23.54,40-47.28c0-22.45-7.72-44.46-21.74-61.98l-7.01-8.76c-4.7-5.88-11.71-9.26-19.25-9.26
				s-14.55,3.38-19.24,9.25l-7.02,8.77C207.72,363.54,200,385.55,200,408c0,23.74,17.34,43.45,40,47.28V480h-72v-80h-64v80H56
				v-24.72c22.66-3.82,40-23.54,40-47.28c0-19.97-6.14-39.57-17.36-56H88v-48H40v25.48c-4.35,1.5-8.29,4.06-11.24,7.77l-7.02,8.77
				C7.72,363.54,0,385.55,0,408c0,23.74,17.34,43.45,40,47.28V480H16v-24H0v40h40h16h184h16h184h16h40v-40h-16v24h-24v-24.72
				C478.66,451.45,496,431.74,496,408z M56,320h16v16h-6.01c-2.78-3.02-6.19-5.21-9.99-6.52L56,320z M40,400v38.86
				c-13.76-3.58-24-15.99-24-30.86c0-18.83,6.48-37.29,18.23-51.98l7.02-8.78C42.9,345.18,45.36,344,48,344s5.1,1.18,6.75,3.25
				l7.02,8.77C73.52,370.71,80,389.17,80,408c0,14.87-10.24,27.29-24,30.86V400H40z M152,480h-32v-64h32V480z M240,400v38.86
				c-13.76-3.58-24-15.99-24-30.86c0-18.83,6.48-37.29,18.23-51.98l7.02-8.78c1.66-2.06,4.11-3.24,6.75-3.24s5.1,1.18,6.75,3.25
				l7.02,8.77C273.52,370.71,280,389.17,280,408c0,14.87-10.24,27.29-24,30.86V400H240z M384,480h-32v-64h32V480z M400,352v-16h16
				v16H400z M440,400v38.86c-13.76-3.58-24-15.99-24-30.86c0-18.83,6.48-37.29,18.23-51.98l7.02-8.78c1.66-2.06,4.11-3.24,6.75-3.24
				s5.1,1.18,6.75,3.25l7.02,8.77C473.52,370.71,480,389.17,480,408c0,14.87-10.24,27.29-24,30.86V400H440z"/>
			<rect x="256" y="256" class="st0" width="16" height="64"/>
			<rect x="464" y="256" class="st0" width="16" height="64"/>
			<path class="st0" d="M432,256h-48v48h48V256z M416,288h-16v-16h16V288z"/>
			<path class="st0" d="M352,256h-48v48h48V256z M336,288h-16v-16h16V288z"/>
			<path class="st0" d="M152,112h-48v48h48V112z M136,144h-16v-16h16V144z"/>
			<path class="st0" d="M216,112h-48v48h48V112z M200,144h-16v-16h16V144z"/>
			<path class="st0" d="M88,112H40v48h48V112z M72,144H56v-16h16V144z"/>
			<path class="st0" d="M152,176h-48v48h48V176z M136,208h-16v-16h16V208z"/>
			<path class="st0" d="M216,176h-48v48h48V176z M200,208h-16v-16h16V208z"/>
			<path class="st0" d="M88,176H40v48h48V176z M72,208H56v-16h16V208z"/>
			<path class="st0" d="M152,240h-48v48h48V240z M136,272h-16v-16h16V272z"/>
			<path class="st0" d="M216,240h-48v48h48V240z M200,272h-16v-16h16V272z"/>
			<path class="st0" d="M40,288h48v-48H40V288z M56,256h16v16H56V256z"/>
			<path class="st0" d="M104,352h48v-48h-48V352z M120,320h16v16h-16V320z"/>
			<path class="st0" d="M168,352h48v-48h-48V352z M184,320h16v16h-16V320z"/>
			<path class="st0" d="M304,368h48v-48h-48V368z M320,336h16v16h-16V336z"/>
			<polygon class="st0" points="16,96 240,96 240,136 256,136 256,80 0,80 0,344 16,344 			"/>
			<path class="st0" d="M40,48h176v16h16V32h-16V0H40v32H24v32h16V48z M56,16h144v16H56V16z"/>
		</g>
	</g>
</g>
</svg>
