<?xml version="1.0" encoding="utf-8"?>
<!-- Generator: Adobe Illustrator 24.0.0, SVG Export Plug-In . SVG Version: 6.00 Build 0)  -->
<svg version="1.1" id="Layer_1" xmlns="http://www.w3.org/2000/svg" xmlns:xlink="http://www.w3.org/1999/xlink" x="0px" y="0px"
	 viewBox="0 0 512 512" style="enable-background:new 0 0 512 512;" xml:space="preserve">
<style type="text/css">
	.st0{fill:#FFFFFF;}
</style>
<path class="st0" d="M346,114c-5.15,0-10.29-1.97-14.2-5.92l-61.65-62.16C266.36,42.1,261.33,40,256,40s-10.36,2.1-14.15,5.92
	l-61.65,62.16c-7.78,7.84-20.44,7.89-28.28,0.12c-7.84-7.78-7.9-20.44-0.12-28.28l61.65-62.16C224.81,6.3,239.92,0,256,0
	s31.19,6.3,42.55,17.75l61.65,62.16c7.78,7.84,7.73,20.51-0.12,28.28C356.18,112.07,351.09,114,346,114z M298.55,494.25l61.65-62.16
	c7.78-7.84,7.73-20.51-0.12-28.28c-7.84-7.78-20.51-7.73-28.28,0.12l-61.65,62.16c-3.79,3.82-8.81,5.92-14.15,5.92
	s-10.36-2.1-14.15-5.92l-61.65-62.16c-7.78-7.84-20.44-7.89-28.28-0.12c-7.84,7.78-7.9,20.44-0.12,28.28l61.65,62.16
	C224.81,505.7,239.92,512,256,512S287.19,505.7,298.55,494.25z M325,255c0-38.6-31.4-70-70-70s-70,31.4-70,70s31.4,70,70,70
	S325,293.6,325,255z M285,255c0,16.54-13.46,30-30,30s-30-13.46-30-30s13.46-30,30-30S285,238.46,285,255z"/>
</svg>
